<svg width="2191" height="485" viewBox="0 0 2191 485" fill="none" xmlns="http://www.w3.org/2000/svg">
<g clip-path="url(#clip0_1599_157)">
<mask id="mask0_1599_157" style="mask-type:luminance" maskUnits="userSpaceOnUse" x="0" y="11" width="2192" height="462">
<path d="M2191.01 11.8776H0.00634766V472.911H2191.01V11.8776Z" fill="white"/>
</mask>
<g mask="url(#mask0_1599_157)">
<path fill-rule="evenodd" clip-rule="evenodd" d="M436.95 152.102V332.829C436.95 397.905 384.116 450.739 319.04 450.739H138.313C73.2376 450.739 20.4033 397.905 20.4033 332.829V152.102C20.4033 87.0263 73.2376 34.192 138.313 34.192H319.04C384.116 34.192 436.95 87.0263 436.95 152.102Z" stroke="white" stroke-width="40.311"/>
<path fill-rule="evenodd" clip-rule="evenodd" d="M277.411 243.794C278.148 239.846 281.071 236.601 284.959 235.413C288.848 234.224 293.035 235.296 295.777 238.181C315.088 258.509 348.911 294.112 366.707 312.845C369.214 315.485 370.133 319.25 369.134 322.795C368.135 326.34 365.362 329.16 361.803 330.247C338.238 337.451 295.356 350.558 271.792 357.762C268.233 358.849 264.398 358.05 261.656 355.649C258.913 353.247 257.655 349.586 258.329 345.973C263.116 320.337 272.216 271.614 277.411 243.794Z" fill="white"/>
<path fill-rule="evenodd" clip-rule="evenodd" d="M184.559 246.044L211.971 293.817C219.535 307 214.79 324.028 201.382 331.817L152.792 360.045C139.383 367.835 122.356 363.456 114.792 350.273L87.3797 302.499C79.8151 289.315 84.5598 272.288 97.9688 264.498L146.559 236.27C159.967 228.481 176.994 232.86 184.559 246.044Z" fill="white"/>
<path d="M229.83 222.934C260.558 222.934 285.467 198.025 285.467 167.297C285.467 136.57 260.558 111.66 229.83 111.66C199.103 111.66 174.193 136.57 174.193 167.297C174.193 198.025 199.103 222.934 229.83 222.934Z" fill="white"/>
<path fill-rule="evenodd" clip-rule="evenodd" d="M668.182 358.468L681.33 324.906C682.022 323.176 683.059 322.83 684.443 322.83H784.091C785.475 322.83 786.859 323.176 787.551 324.906L801.045 358.468C801.737 360.544 803.122 361.236 804.852 361.236H846.716C849.138 361.236 850.523 359.507 849.485 357.085L749.146 121.804C748.454 119.728 747.069 119.036 745.339 119.036H717.658C715.928 119.036 714.546 119.728 713.854 121.804L619.741 357.085C618.703 359.507 619.742 361.236 622.164 361.236H664.376C666.106 361.236 667.49 360.544 668.182 358.468ZM697.938 278.196L730.461 194.465C731.153 192.389 732.883 192.389 733.921 194.465L768.866 278.196C769.558 279.926 768.867 281.31 766.791 281.31H700.013C697.937 281.31 697.246 279.926 697.938 278.196Z" fill="white"/>
<path fill-rule="evenodd" clip-rule="evenodd" d="M931.14 365.388C970.238 365.388 997.917 336.324 1003.8 311.758C1004.14 310.374 1002.76 309.336 1000.69 308.99L970.93 303.108C969.2 302.762 967.47 303.453 966.432 305.183C961.934 313.141 949.824 326.636 929.41 326.636C905.19 326.636 884.431 304.146 884.431 276.466C884.431 248.094 901.385 224.22 929.41 224.22C950.862 224.22 961.588 238.752 966.085 245.672C967.123 247.402 969.2 248.094 970.93 247.056L1001.03 231.831C1003.11 230.793 1003.45 229.064 1002.42 226.988C987.884 202.076 964.356 185.122 931.14 185.122C881.317 185.122 844.294 225.257 844.294 275.081C844.294 325.251 881.317 365.388 931.14 365.388Z" fill="white"/>
<path fill-rule="evenodd" clip-rule="evenodd" d="M1090.99 136.338H1052.24C1050.16 136.338 1048.78 137.721 1048.78 139.797V185.469C1048.78 187.199 1047.74 188.237 1046.01 188.237H1014.53C1012.45 188.237 1011.07 189.621 1011.07 191.697V221.799C1011.07 223.875 1012.45 225.259 1014.53 225.259H1046.01C1047.74 225.259 1048.78 226.297 1048.78 228.027V357.777C1048.78 359.853 1050.16 361.237 1052.24 361.237H1090.99C1093.07 361.237 1094.45 359.853 1094.45 357.777V228.027C1094.45 226.297 1095.49 225.259 1097.22 225.259H1125.94C1128.02 225.259 1129.4 223.875 1129.4 221.799V191.697C1129.4 189.621 1128.02 188.237 1125.94 188.237H1097.22C1095.49 188.237 1094.45 187.199 1094.45 185.469V139.797C1094.45 137.721 1093.07 136.338 1090.99 136.338Z" fill="white"/>
<path fill-rule="evenodd" clip-rule="evenodd" d="M1226.97 365.735C1275.41 365.735 1314.17 324.907 1314.17 274.737C1314.17 224.567 1275.41 183.739 1226.97 183.739C1178.88 183.739 1139.78 224.567 1139.78 274.737C1139.78 324.907 1178.88 365.735 1226.97 365.735ZM1179.57 275.082C1179.57 249.478 1200.33 225.951 1226.97 225.951C1253.61 225.951 1274.38 248.786 1274.38 275.082C1274.38 301.724 1253.61 324.56 1226.97 324.56C1201.02 324.56 1179.57 301.724 1179.57 275.082Z" fill="white"/>
<path fill-rule="evenodd" clip-rule="evenodd" d="M1338.38 361.236H1377.14C1379.21 361.236 1380.6 359.852 1380.6 357.776V291.344C1380.6 257.782 1389.94 232.869 1414.85 232.869C1419 232.869 1423.15 233.562 1426.96 235.638C1429.04 236.676 1430.42 236.676 1431.46 234.254L1448.07 196.886C1448.76 194.81 1448.41 193.08 1446.34 192.388C1439.07 189.62 1429.73 188.236 1422.46 188.236C1407.93 188.236 1394.44 194.118 1384.06 203.806C1381.98 205.19 1380.6 204.844 1380.6 202.422V191.696C1380.6 189.62 1379.21 188.236 1377.14 188.236H1338.38C1336.31 188.236 1334.92 189.62 1334.92 191.696V357.776C1334.92 359.852 1336.31 361.236 1338.38 361.236Z" fill="white"/>
<path fill-rule="evenodd" clip-rule="evenodd" d="M1583.69 365.385C1641.48 365.385 1677.11 324.212 1684.38 289.959C1684.73 288.575 1683.34 287.881 1681.27 287.535L1646.67 283.73C1644.94 283.384 1643.55 284.075 1642.52 285.805C1629.37 307.949 1611.03 323.865 1585.42 323.865C1545.29 323.865 1512.07 285.114 1512.07 240.481C1512.07 196.193 1545.29 157.094 1585.42 157.094C1608.26 157.094 1629.02 169.204 1642.17 187.196C1643.21 188.926 1644.94 189.618 1646.67 188.926L1680.92 178.546C1683 177.854 1684.03 176.124 1682.65 174.048C1662.24 139.102 1625.56 115.229 1583.69 115.229C1518.99 115.229 1466.75 171.28 1466.75 240.134C1466.75 309.334 1518.99 365.385 1583.69 365.385Z" fill="white"/>
<path fill-rule="evenodd" clip-rule="evenodd" d="M1785.76 365.735C1834.2 365.735 1872.95 324.907 1872.95 274.737C1872.95 224.567 1834.2 183.739 1785.76 183.739C1737.66 183.739 1698.57 224.567 1698.57 274.737C1698.57 324.907 1737.66 365.735 1785.76 365.735ZM1738.36 275.082C1738.36 249.478 1759.12 225.951 1785.76 225.951C1812.4 225.951 1833.16 248.786 1833.16 275.082C1833.16 301.724 1812.4 324.56 1785.76 324.56C1759.81 324.56 1738.36 301.724 1738.36 275.082Z" fill="white"/>
<path fill-rule="evenodd" clip-rule="evenodd" d="M1897.17 361.236H1935.92C1938 361.236 1939.38 359.852 1939.38 357.776V291.344C1939.38 257.782 1948.72 232.869 1973.64 232.869C1977.79 232.869 1981.94 233.562 1985.75 235.638C1987.82 236.676 1989.21 236.676 1990.24 234.254L2006.85 196.886C2007.54 194.81 2007.2 193.08 2005.12 192.388C1997.86 189.62 1988.51 188.236 1981.25 188.236C1966.72 188.236 1953.22 194.118 1942.84 203.806C1940.77 205.19 1939.38 204.844 1939.38 202.422V191.696C1939.38 189.62 1938 188.236 1935.92 188.236H1897.17C1895.09 188.236 1893.71 189.62 1893.71 191.696V357.776C1893.71 359.852 1895.09 361.236 1897.17 361.236Z" fill="white"/>
<path fill-rule="evenodd" clip-rule="evenodd" d="M2092.66 365.389C2136.95 365.389 2164.28 335.633 2170.51 310.375C2170.85 308.991 2169.47 307.954 2167.39 307.608L2137.98 302.417C2136.25 302.071 2134.87 302.764 2133.83 304.494C2124.84 319.371 2114.11 329.406 2092.66 329.406C2083.32 329.406 2072.24 327.675 2063.25 320.063C2061.52 318.679 2061.87 316.949 2063.6 315.911L2167.39 255.362C2168.78 254.324 2169.82 252.939 2169.47 251.209C2166.36 213.841 2131.06 182.702 2088.85 182.702C2039.03 182.702 2001.31 222.146 2001.31 273.008C2001.31 324.216 2042.49 365.389 2092.66 365.389ZM2044.91 281.311C2035.57 252.939 2063.25 224.913 2086.43 222.145C2102.35 220.415 2115.15 226.99 2121.38 237.37C2122.41 239.1 2121.72 240.138 2120.34 241.176L2049.41 284.771C2048.03 285.809 2046.29 285.464 2045.6 283.388L2044.91 281.311Z" fill="white"/>
</g>
</g>
<defs>
<clipPath id="clip0_1599_157">
<rect width="2191" height="484" fill="white" transform="translate(0 0.898193)"/>
</clipPath>
</defs>
</svg>
