<svg width="2191" height="484" viewBox="0 0 2191 484" fill="none" xmlns="http://www.w3.org/2000/svg">
<g clip-path="url(#clip0_1599_191)">
<mask id="mask0_1599_191" style="mask-type:luminance" maskUnits="userSpaceOnUse" x="0" y="10" width="2192" height="463">
<path d="M2191.01 10.9795H0.00634766V472.013H2191.01V10.9795Z" fill="white"/>
</mask>
<g mask="url(#mask0_1599_191)">
<path fill-rule="evenodd" clip-rule="evenodd" d="M436.95 151.204V331.931C436.95 397.007 384.116 449.841 319.04 449.841H138.313C73.2376 449.841 20.4033 397.007 20.4033 331.931V151.204C20.4033 86.1282 73.2376 33.2939 138.313 33.2939H319.04C384.116 33.2939 436.95 86.1282 436.95 151.204Z" stroke="black" stroke-width="40.311"/>
<path fill-rule="evenodd" clip-rule="evenodd" d="M277.411 242.896C278.148 238.948 281.071 235.703 284.959 234.515C288.848 233.326 293.035 234.398 295.777 237.283C315.088 257.611 348.911 293.214 366.707 311.947C369.214 314.587 370.133 318.352 369.134 321.897C368.135 325.442 365.362 328.262 361.803 329.349C338.238 336.553 295.356 349.66 271.792 356.864C268.233 357.951 264.398 357.152 261.656 354.751C258.913 352.349 257.655 348.688 258.329 345.075C263.116 319.439 272.216 270.716 277.411 242.896Z" fill="black"/>
<path fill-rule="evenodd" clip-rule="evenodd" d="M184.559 245.146L211.971 292.919C219.535 306.102 214.79 323.13 201.382 330.919L152.792 359.147C139.383 366.937 122.356 362.558 114.792 349.375L87.3797 301.601C79.8151 288.417 84.5598 271.39 97.9688 263.6L146.559 235.372C159.967 227.583 176.994 231.962 184.559 245.146Z" fill="black"/>
<path d="M229.83 222.036C260.558 222.036 285.467 197.126 285.467 166.399C285.467 135.672 260.558 110.762 229.83 110.762C199.103 110.762 174.193 135.672 174.193 166.399C174.193 197.126 199.103 222.036 229.83 222.036Z" fill="black"/>
<path fill-rule="evenodd" clip-rule="evenodd" d="M668.182 357.57L681.33 324.008C682.022 322.278 683.059 321.931 684.443 321.931H784.091C785.475 321.931 786.859 322.278 787.551 324.008L801.045 357.57C801.737 359.646 803.122 360.338 804.852 360.338H846.716C849.138 360.338 850.523 358.609 849.485 356.187L749.146 120.906C748.454 118.83 747.069 118.138 745.339 118.138H717.658C715.928 118.138 714.546 118.83 713.854 120.906L619.741 356.187C618.703 358.609 619.742 360.338 622.164 360.338H664.376C666.106 360.338 667.49 359.646 668.182 357.57ZM697.938 277.298L730.461 193.567C731.153 191.491 732.883 191.491 733.921 193.567L768.866 277.298C769.558 279.028 768.867 280.411 766.791 280.411H700.013C697.937 280.411 697.246 279.028 697.938 277.298Z" fill="black"/>
<path fill-rule="evenodd" clip-rule="evenodd" d="M931.14 364.489C970.238 364.489 997.917 335.426 1003.8 310.86C1004.14 309.476 1002.76 308.438 1000.69 308.092L970.93 302.21C969.2 301.864 967.47 302.555 966.432 304.285C961.934 312.243 949.824 325.738 929.41 325.738C905.19 325.738 884.431 303.248 884.431 275.568C884.431 247.196 901.385 223.322 929.41 223.322C950.862 223.322 961.588 237.854 966.085 244.774C967.123 246.504 969.2 247.196 970.93 246.158L1001.03 230.933C1003.11 229.895 1003.45 228.166 1002.42 226.09C987.884 201.178 964.356 184.223 931.14 184.223C881.317 184.223 844.294 224.359 844.294 274.183C844.294 324.353 881.317 364.489 931.14 364.489Z" fill="black"/>
<path fill-rule="evenodd" clip-rule="evenodd" d="M1090.99 135.439H1052.24C1050.16 135.439 1048.78 136.823 1048.78 138.899V184.571C1048.78 186.301 1047.74 187.339 1046.01 187.339H1014.53C1012.45 187.339 1011.07 188.723 1011.07 190.799V220.901C1011.07 222.977 1012.45 224.361 1014.53 224.361H1046.01C1047.74 224.361 1048.78 225.399 1048.78 227.129V356.879C1048.78 358.955 1050.16 360.339 1052.24 360.339H1090.99C1093.07 360.339 1094.45 358.955 1094.45 356.879V227.129C1094.45 225.399 1095.49 224.361 1097.22 224.361H1125.94C1128.02 224.361 1129.4 222.977 1129.4 220.901V190.799C1129.4 188.723 1128.02 187.339 1125.94 187.339H1097.22C1095.49 187.339 1094.45 186.301 1094.45 184.571V138.899C1094.45 136.823 1093.07 135.439 1090.99 135.439Z" fill="black"/>
<path fill-rule="evenodd" clip-rule="evenodd" d="M1226.97 364.837C1275.41 364.837 1314.17 324.009 1314.17 273.839C1314.17 223.669 1275.41 182.841 1226.97 182.841C1178.88 182.841 1139.78 223.669 1139.78 273.839C1139.78 324.009 1178.88 364.837 1226.97 364.837ZM1179.57 274.184C1179.57 248.58 1200.33 225.053 1226.97 225.053C1253.61 225.053 1274.38 247.888 1274.38 274.184C1274.38 300.826 1253.61 323.662 1226.97 323.662C1201.02 323.662 1179.57 300.826 1179.57 274.184Z" fill="black"/>
<path fill-rule="evenodd" clip-rule="evenodd" d="M1338.38 360.338H1377.14C1379.21 360.338 1380.6 358.954 1380.6 356.878V290.446C1380.6 256.884 1389.94 231.971 1414.85 231.971C1419 231.971 1423.15 232.664 1426.96 234.74C1429.04 235.778 1430.42 235.778 1431.46 233.356L1448.07 195.988C1448.76 193.912 1448.41 192.182 1446.34 191.49C1439.07 188.722 1429.73 187.338 1422.46 187.338C1407.93 187.338 1394.44 193.22 1384.06 202.908C1381.98 204.292 1380.6 203.946 1380.6 201.524V190.798C1380.6 188.722 1379.21 187.338 1377.14 187.338H1338.38C1336.31 187.338 1334.92 188.722 1334.92 190.798V356.878C1334.92 358.954 1336.31 360.338 1338.38 360.338Z" fill="black"/>
<path fill-rule="evenodd" clip-rule="evenodd" d="M1583.69 364.487C1641.48 364.487 1677.11 323.314 1684.38 289.06C1684.73 287.676 1683.34 286.983 1681.27 286.637L1646.67 282.832C1644.94 282.486 1643.55 283.177 1642.52 284.907C1629.37 307.051 1611.03 322.967 1585.42 322.967C1545.29 322.967 1512.07 284.216 1512.07 239.582C1512.07 195.294 1545.29 156.196 1585.42 156.196C1608.26 156.196 1629.02 168.306 1642.17 186.298C1643.21 188.028 1644.94 188.72 1646.67 188.028L1680.92 177.648C1683 176.956 1684.03 175.226 1682.65 173.15C1662.24 138.204 1625.56 114.331 1583.69 114.331C1518.99 114.331 1466.75 170.382 1466.75 239.236C1466.75 308.436 1518.99 364.487 1583.69 364.487Z" fill="black"/>
<path fill-rule="evenodd" clip-rule="evenodd" d="M1785.76 364.837C1834.2 364.837 1872.95 324.009 1872.95 273.839C1872.95 223.669 1834.2 182.841 1785.76 182.841C1737.66 182.841 1698.57 223.669 1698.57 273.839C1698.57 324.009 1737.66 364.837 1785.76 364.837ZM1738.36 274.184C1738.36 248.58 1759.12 225.053 1785.76 225.053C1812.4 225.053 1833.16 247.888 1833.16 274.184C1833.16 300.826 1812.4 323.662 1785.76 323.662C1759.81 323.662 1738.36 300.826 1738.36 274.184Z" fill="black"/>
<path fill-rule="evenodd" clip-rule="evenodd" d="M1897.17 360.338H1935.92C1938 360.338 1939.38 358.954 1939.38 356.878V290.446C1939.38 256.884 1948.72 231.971 1973.64 231.971C1977.79 231.971 1981.94 232.664 1985.75 234.74C1987.82 235.778 1989.21 235.778 1990.24 233.356L2006.85 195.988C2007.54 193.912 2007.2 192.182 2005.12 191.49C1997.86 188.722 1988.51 187.338 1981.25 187.338C1966.72 187.338 1953.22 193.22 1942.84 202.908C1940.77 204.292 1939.38 203.946 1939.38 201.524V190.798C1939.38 188.722 1938 187.338 1935.92 187.338H1897.17C1895.09 187.338 1893.71 188.722 1893.71 190.798V356.878C1893.71 358.954 1895.09 360.338 1897.17 360.338Z" fill="black"/>
<path fill-rule="evenodd" clip-rule="evenodd" d="M2092.66 364.491C2136.95 364.491 2164.28 334.735 2170.51 309.477C2170.85 308.093 2169.47 307.056 2167.39 306.71L2137.98 301.519C2136.25 301.173 2134.87 301.865 2133.83 303.595C2124.84 318.473 2114.11 328.508 2092.66 328.508C2083.32 328.508 2072.24 326.777 2063.25 319.165C2061.52 317.781 2061.87 316.051 2063.6 315.013L2167.39 254.464C2168.78 253.426 2169.82 252.041 2169.47 250.311C2166.36 212.943 2131.06 181.804 2088.85 181.804C2039.03 181.804 2001.31 221.248 2001.31 272.11C2001.31 323.318 2042.49 364.491 2092.66 364.491ZM2044.91 280.413C2035.57 252.041 2063.25 224.015 2086.43 221.247C2102.35 219.517 2115.15 226.092 2121.38 236.471C2122.41 238.201 2121.72 239.24 2120.34 240.278L2049.41 283.873C2048.03 284.911 2046.29 284.566 2045.6 282.49L2044.91 280.413Z" fill="black"/>
</g>
</g>
<defs>
<clipPath id="clip0_1599_191">
<rect width="2191" height="484" fill="white"/>
</clipPath>
</defs>
</svg>
