<?xml version="1.0" encoding="UTF-8" standalone="no"?>
<!DOCTYPE svg PUBLIC "-//W3C//DTD SVG 1.1//EN" "http://www.w3.org/Graphics/SVG/1.1/DTD/svg11.dtd">
<svg width="100%" height="100%" viewBox="0 0 825 174" version="1.1" xmlns="http://www.w3.org/2000/svg" xmlns:xlink="http://www.w3.org/1999/xlink" xml:space="preserve" xmlns:serif="http://www.serif.com/" style="fill-rule:evenodd;clip-rule:evenodd;">
    <g transform="matrix(1,0,0,1,-6426,-23546)">
        <g id="Artboard6" transform="matrix(0.912611,0,0,0.812733,561.564,4425.31)">
            <rect x="6426" y="23526.4" width="904" height="213.599" style="fill:none;"/>
            <clipPath id="_clip1">
                <rect x="6426" y="23526.4" width="904" height="213.599"/>
            </clipPath>
            <g clip-path="url(#_clip1)">
                <g transform="matrix(2.77203,0,0,3.11269,6426.1,23527.4)">
                    <path d="M65,20.55L65,47.45C65,57.136 57.136,65 47.45,65L20.55,65C10.864,65 3,57.136 3,47.45L3,20.55C3,10.864 10.864,3 20.55,3L47.45,3C57.136,3 65,10.864 65,20.55Z" style="fill:none;stroke:white;stroke-width:6px;"/>
                </g>
                <g transform="matrix(0.490573,0,0,0.55086,6263.04,23172)">
                    <g transform="matrix(0.815202,-0.244045,0.244045,0.815202,-27.8167,271.288)">
                        <path d="M476.625,837.829C478.403,834.272 482.039,832.025 486.016,832.025C489.993,832.025 493.628,834.272 495.407,837.829C507.938,862.892 529.886,906.787 541.434,929.883C543.061,933.138 542.887,937.003 540.974,940.099C539.061,943.194 535.682,945.078 532.043,945.078C507.943,945.078 464.088,945.078 439.989,945.078C436.35,945.078 432.97,943.194 431.057,940.099C429.144,937.003 428.97,933.138 430.597,929.883C442.145,906.787 464.093,862.892 476.625,837.829Z" style="fill:white;"/>
                    </g>
                    <g transform="matrix(0.643083,-0.371284,0.371284,0.643083,-191.565,492.629)">
                        <path d="M557.031,862.508L557.031,925.524C557.031,942.913 542.913,957.031 525.524,957.031L462.508,957.031C445.118,957.031 431,942.913 431,925.524L431,862.508C431,845.118 445.118,831 462.508,831L525.524,831C542.913,831 557.031,845.118 557.031,862.508Z" style="fill:white;"/>
                    </g>
                    <g transform="matrix(0.767106,0,0,0.767106,34.4818,140.442)">
                        <circle cx="640.063" cy="826" r="61" style="fill:white;"/>
                    </g>
                </g>
                <g transform="matrix(11.8965,0,0,13.3585,-2757.41,12929)">
                    <path d="M795.116,805.328L795.572,804.164C795.596,804.104 795.632,804.092 795.68,804.092L799.136,804.092C799.184,804.092 799.232,804.104 799.256,804.164L799.724,805.328C799.748,805.4 799.796,805.424 799.856,805.424L801.308,805.424C801.392,805.424 801.44,805.364 801.404,805.28L797.924,797.12C797.9,797.048 797.852,797.024 797.792,797.024L796.832,797.024C796.772,797.024 796.724,797.048 796.7,797.12L793.436,805.28C793.4,805.364 793.436,805.424 793.52,805.424L794.984,805.424C795.044,805.424 795.092,805.4 795.116,805.328ZM796.148,802.544L797.276,799.64C797.3,799.568 797.36,799.568 797.396,799.64L798.608,802.544C798.632,802.604 798.608,802.652 798.536,802.652L796.22,802.652C796.148,802.652 796.124,802.604 796.148,802.544Z" style="fill:white;fill-rule:nonzero;"/>
                    <path d="M804.236,805.568C805.592,805.568 806.552,804.56 806.756,803.708C806.768,803.66 806.72,803.624 806.648,803.612L805.616,803.408C805.556,803.396 805.496,803.42 805.46,803.48C805.304,803.756 804.884,804.224 804.176,804.224C803.336,804.224 802.616,803.444 802.616,802.484C802.616,801.5 803.204,800.672 804.176,800.672C804.92,800.672 805.292,801.176 805.448,801.416C805.484,801.476 805.556,801.5 805.616,801.464L806.66,800.936C806.732,800.9 806.744,800.84 806.708,800.768C806.204,799.904 805.388,799.316 804.236,799.316C802.508,799.316 801.224,800.708 801.224,802.436C801.224,804.176 802.508,805.568 804.236,805.568Z" style="fill:white;fill-rule:nonzero;"/>
                    <path d="M809.78,797.624L808.436,797.624C808.364,797.624 808.316,797.672 808.316,797.744L808.316,799.328C808.316,799.388 808.28,799.424 808.22,799.424L807.128,799.424C807.056,799.424 807.008,799.472 807.008,799.544L807.008,800.588C807.008,800.66 807.056,800.708 807.128,800.708L808.22,800.708C808.28,800.708 808.316,800.744 808.316,800.804L808.316,805.304C808.316,805.376 808.364,805.424 808.436,805.424L809.78,805.424C809.852,805.424 809.9,805.376 809.9,805.304L809.9,800.804C809.9,800.744 809.936,800.708 809.996,800.708L810.992,800.708C811.064,800.708 811.112,800.66 811.112,800.588L811.112,799.544C811.112,799.472 811.064,799.424 810.992,799.424L809.996,799.424C809.936,799.424 809.9,799.388 809.9,799.328L809.9,797.744C809.9,797.672 809.852,797.624 809.78,797.624Z" style="fill:white;fill-rule:nonzero;"/>
                    <path d="M814.496,805.58C816.176,805.58 817.52,804.164 817.52,802.424C817.52,800.684 816.176,799.268 814.496,799.268C812.828,799.268 811.472,800.684 811.472,802.424C811.472,804.164 812.828,805.58 814.496,805.58ZM812.852,802.436C812.852,801.548 813.572,800.732 814.496,800.732C815.42,800.732 816.14,801.524 816.14,802.436C816.14,803.36 815.42,804.152 814.496,804.152C813.596,804.152 812.852,803.36 812.852,802.436Z" style="fill:white;fill-rule:nonzero;"/>
                    <path d="M818.36,805.424L819.704,805.424C819.776,805.424 819.824,805.376 819.824,805.304L819.824,803C819.824,801.836 820.148,800.972 821.012,800.972C821.156,800.972 821.3,800.996 821.432,801.068C821.504,801.104 821.552,801.104 821.588,801.02L822.164,799.724C822.188,799.652 822.176,799.592 822.104,799.568C821.852,799.472 821.528,799.424 821.276,799.424C820.772,799.424 820.304,799.628 819.944,799.964C819.872,800.012 819.824,800 819.824,799.916L819.824,799.544C819.824,799.472 819.776,799.424 819.704,799.424L818.36,799.424C818.288,799.424 818.24,799.472 818.24,799.544L818.24,805.304C818.24,805.376 818.288,805.424 818.36,805.424Z" style="fill:white;fill-rule:nonzero;"/>
                    <path d="M826.868,805.568C828.872,805.568 830.108,804.14 830.36,802.952C830.372,802.904 830.324,802.88 830.252,802.868L829.052,802.736C828.992,802.724 828.944,802.748 828.908,802.808C828.452,803.576 827.816,804.128 826.928,804.128C825.536,804.128 824.384,802.784 824.384,801.236C824.384,799.7 825.536,798.344 826.928,798.344C827.72,798.344 828.44,798.764 828.896,799.388C828.932,799.448 828.992,799.472 829.052,799.448L830.24,799.088C830.312,799.064 830.348,799.004 830.3,798.932C829.592,797.72 828.32,796.892 826.868,796.892C824.624,796.892 822.812,798.836 822.812,801.224C822.812,803.624 824.624,805.568 826.868,805.568Z" style="fill:white;fill-rule:nonzero;"/>
                    <path d="M833.876,805.58C835.556,805.58 836.9,804.164 836.9,802.424C836.9,800.684 835.556,799.268 833.876,799.268C832.208,799.268 830.852,800.684 830.852,802.424C830.852,804.164 832.208,805.58 833.876,805.58ZM832.232,802.436C832.232,801.548 832.952,800.732 833.876,800.732C834.8,800.732 835.52,801.524 835.52,802.436C835.52,803.36 834.8,804.152 833.876,804.152C832.976,804.152 832.232,803.36 832.232,802.436Z" style="fill:white;fill-rule:nonzero;"/>
                    <path d="M837.74,805.424L839.084,805.424C839.156,805.424 839.204,805.376 839.204,805.304L839.204,803C839.204,801.836 839.528,800.972 840.392,800.972C840.536,800.972 840.68,800.996 840.812,801.068C840.884,801.104 840.932,801.104 840.968,801.02L841.544,799.724C841.568,799.652 841.556,799.592 841.484,799.568C841.232,799.472 840.908,799.424 840.656,799.424C840.152,799.424 839.684,799.628 839.324,799.964C839.252,800.012 839.204,800 839.204,799.916L839.204,799.544C839.204,799.472 839.156,799.424 839.084,799.424L837.74,799.424C837.668,799.424 837.62,799.472 837.62,799.544L837.62,805.304C837.62,805.376 837.668,805.424 837.74,805.424Z" style="fill:white;fill-rule:nonzero;"/>
                    <path d="M844.52,805.568C846.056,805.568 847.004,804.536 847.22,803.66C847.232,803.612 847.184,803.576 847.112,803.564L846.092,803.384C846.032,803.372 845.984,803.396 845.948,803.456C845.636,803.972 845.264,804.32 844.52,804.32C844.196,804.32 843.812,804.26 843.5,803.996C843.44,803.948 843.452,803.888 843.512,803.852L847.112,801.752C847.16,801.716 847.196,801.668 847.184,801.608C847.076,800.312 845.852,799.232 844.388,799.232C842.66,799.232 841.352,800.6 841.352,802.364C841.352,804.14 842.78,805.568 844.52,805.568ZM842.864,802.652C842.54,801.668 843.5,800.696 844.304,800.6C844.856,800.54 845.3,800.768 845.516,801.128C845.552,801.188 845.528,801.224 845.48,801.26L843.02,802.772C842.972,802.808 842.912,802.796 842.888,802.724L842.864,802.652Z" style="fill:white;fill-rule:nonzero;"/>
                </g>
            </g>
        </g>
    </g>
</svg>
