<svg width="128" height="128" viewBox="0 0 128 128" fill="none" xmlns="http://www.w3.org/2000/svg">
<rect x="1" y="1" width="126" height="126" rx="44" fill="#0F0F0F"/>
<rect x="18.25" y="18.25" width="91.5" height="91.5" rx="25.75" stroke="#F0F0F0" stroke-width="8.5"/>
<path fill-rule="evenodd" clip-rule="evenodd" d="M75.502 63.8564C75.6431 63.0476 76.2292 62.3878 77.0158 62.1524C77.8024 61.9169 78.6544 62.1461 79.2168 62.7443C83.1793 66.9594 90.1194 74.3417 93.771 78.226C94.2855 78.7735 94.4799 79.5482 94.2849 80.2738C94.0898 80.9993 93.533 81.572 92.8133 81.7874C88.0466 83.2144 79.3727 85.8111 74.6062 87.238C73.8865 87.4535 73.1064 87.281 72.5448 86.7821C71.9831 86.2831 71.7198 85.5289 71.8489 84.7888C72.7654 79.5369 74.5073 69.5555 75.502 63.8564Z" fill="#F0F0F0"/>
<path fill-rule="evenodd" clip-rule="evenodd" d="M56.5025 64.4646L62.1791 74.2967C63.7455 77.0099 62.8145 80.4845 60.1014 82.0509L50.2692 87.7275C47.5559 89.294 44.0813 88.363 42.5149 85.6499L36.8383 75.8177C35.2718 73.1044 36.2028 69.6298 38.9161 68.0633L48.7483 62.3867C51.4614 60.8203 54.936 61.7513 56.5025 64.4646Z" fill="#F0F0F0"/>
<path d="M65.8654 59.7063C72.1356 59.7063 77.2185 54.6233 77.2185 48.3532C77.2185 42.083 72.1356 37 65.8654 37C59.5952 37 54.5122 42.083 54.5122 48.3532C54.5122 54.6233 59.5952 59.7063 65.8654 59.7063Z" fill="#F0F0F0"/>
</svg>
