<?xml version="1.0" encoding="UTF-8" standalone="no"?>
<!DOCTYPE svg PUBLIC "-//W3C//DTD SVG 1.1//EN" "http://www.w3.org/Graphics/SVG/1.1/DTD/svg11.dtd">
<svg width="100%" height="100%" viewBox="0 0 256 256" version="1.1" xmlns="http://www.w3.org/2000/svg" xmlns:xlink="http://www.w3.org/1999/xlink" xml:space="preserve" xmlns:serif="http://www.serif.com/" style="fill-rule:evenodd;clip-rule:evenodd;">
    <g transform="matrix(1,0,0,1,-4277,-6707)">
        <g id="Artboard5" transform="matrix(1.00776,0,0,1.00776,472.702,-52.0526)">
            <rect x="3775" y="6707" width="254.029" height="254.029"/>
            <g transform="matrix(2.5103,0,0,2.5103,3816.66,6748.66)">
                <path d="M65,20.55L65,47.45C65,57.136 57.136,65 47.45,65L20.55,65C10.864,65 3,57.136 3,47.45L3,20.55C3,10.864 10.864,3 20.55,3L47.45,3C57.136,3 65,10.864 65,20.55Z" style="fill:none;stroke:white;stroke-width:6px;"/>
            </g>
            <g transform="matrix(0.444254,0,0,0.444254,3669,6462.1)">
                <g transform="matrix(0.815202,-0.244045,0.244045,0.815202,-27.8167,271.288)">
                    <path d="M476.625,837.829C478.403,834.272 482.039,832.025 486.016,832.025C489.993,832.025 493.628,834.272 495.407,837.829C507.938,862.892 529.886,906.787 541.434,929.883C543.061,933.138 542.887,937.003 540.974,940.099C539.061,943.194 535.682,945.078 532.043,945.078C507.943,945.078 464.088,945.078 439.989,945.078C436.35,945.078 432.97,943.194 431.057,940.099C429.144,937.003 428.97,933.138 430.597,929.883C442.145,906.787 464.093,862.892 476.625,837.829Z" style="fill:white;"/>
                </g>
                <g transform="matrix(0.643083,-0.371284,0.371284,0.643083,-191.565,492.629)">
                    <path d="M557.031,862.508L557.031,925.524C557.031,942.913 542.913,957.031 525.524,957.031L462.508,957.031C445.118,957.031 431,942.913 431,925.524L431,862.508C431,845.118 445.118,831 462.508,831L525.524,831C542.913,831 557.031,845.118 557.031,862.508Z" style="fill:white;"/>
                </g>
                <g transform="matrix(0.767106,0,0,0.767106,34.4818,140.442)">
                    <circle cx="640.063" cy="826" r="61" style="fill:white;"/>
                </g>
            </g>
        </g>
        <g id="_27-moshed-01-21-14-19-20" serif:id="27-moshed-01-21-14-19-20">
        </g>
        <g id="_27-moshed-01-21-14-19-201" serif:id="27-moshed-01-21-14-19-20">
        </g>
    </g>
</svg>
