<?xml version="1.0" encoding="UTF-8" standalone="no"?>
<!DOCTYPE svg PUBLIC "-//W3C//DTD SVG 1.1//EN" "http://www.w3.org/Graphics/SVG/1.1/DTD/svg11.dtd">
<svg width="100%" height="100%" viewBox="0 0 290 291" version="1.1" xmlns="http://www.w3.org/2000/svg" xmlns:xlink="http://www.w3.org/1999/xlink" xml:space="preserve" xmlns:serif="http://www.serif.com/" style="fill-rule:evenodd;clip-rule:evenodd;">
    <g transform="matrix(1,0,0,1,-15311,-7377.49)">
        <g id="Artboard7" transform="matrix(0.417266,0,0,0.418001,8536.68,4378.33)">
            <rect x="16235" y="7175" width="695" height="695" style="fill:none;"/>
            <clipPath id="_clip1">
                <rect x="16235" y="7175" width="695" height="695"/>
            </clipPath>
            <g clip-path="url(#_clip1)">
                <g transform="matrix(10.2055,0,0,10.1876,16234.3,7175.54)">
                    <path d="M65,20.55L65,47.45C65,57.136 57.136,65 47.45,65L20.55,65C10.864,65 3,57.136 3,47.45L3,20.55C3,10.864 10.864,3 20.55,3L47.45,3C57.136,3 65,10.864 65,20.55Z" style="fill:none;stroke:white;stroke-width:6px;"/>
                </g>
                <g transform="matrix(1.80609,0,0,1.80292,15634,6012.58)">
                    <g transform="matrix(0.815202,-0.244045,0.244045,0.815202,-27.8167,271.288)">
                        <path d="M480.437,830.205C481.493,828.092 483.653,826.757 486.016,826.757C488.378,826.757 490.538,828.092 491.595,830.205C503.917,854.849 533.252,913.519 544.518,936.051C545.485,937.985 545.381,940.281 544.245,942.12C543.108,943.959 541.101,945.078 538.939,945.078C515.327,945.078 456.704,945.078 433.092,945.078C430.931,945.078 428.923,943.959 427.786,942.12C426.65,940.281 426.547,937.985 427.513,936.051C438.779,913.519 468.115,854.849 480.437,830.205Z" style="fill:white;"/>
                    </g>
                    <g transform="matrix(0.643083,-0.371284,0.371284,0.643083,-191.565,492.629)">
                        <path d="M557.031,862.508L557.031,925.524C557.031,942.913 542.913,957.031 525.524,957.031L462.508,957.031C445.118,957.031 431,942.913 431,925.524L431,862.508C431,845.118 445.118,831 462.508,831L525.524,831C542.913,831 557.031,845.118 557.031,862.508Z" style="fill:white;"/>
                    </g>
                    <g transform="matrix(0.767106,0,0,0.767106,34.4818,140.442)">
                        <circle cx="640.063" cy="826" r="61" style="fill:white;"/>
                    </g>
                </g>
            </g>
        </g>
    </g>
</svg>
